<svg width="258" height="258" viewBox="0 0 258 258" fill="none" xmlns="http://www.w3.org/2000/svg">
<g clip-path="url(#clip0_18_2)">
<path d="M249.991 163.37L223.478 141.535C224.062 137.273 224.348 133.128 224.348 129C224.348 124.872 224.061 120.727 223.478 116.464L249.991 94.6291C253.171 92.0098 253.99 87.4892 251.931 83.9276L229.497 45.0704C227.444 41.5032 223.114 39.9497 219.261 41.4025L187.039 53.4725C180.41 48.3685 173.157 44.1845 165.39 40.9762L159.73 7.03252C159.057 2.97254 155.546 0 151.435 0H106.566C102.454 0 98.9435 2.97254 98.2703 7.03352L92.6109 40.9772C84.8427 44.1855 77.591 48.3695 70.9616 53.4735L38.7393 41.4035C34.8975 39.9452 30.5619 41.5042 28.5034 45.0714L6.06852 83.9286C4.01007 87.4902 4.82891 92.0108 8.00907 94.6301L34.5216 116.465C33.9381 120.727 33.6524 124.873 33.6524 129.001C33.6524 133.129 33.9386 137.273 34.5216 141.536L8.00907 163.371C4.82891 165.99 4.01007 170.511 6.06852 174.072L28.5034 212.93C30.5619 216.497 34.903 218.061 38.7393 216.598L70.9611 204.528C77.5905 209.632 84.8427 213.816 92.6104 217.024L98.2698 250.968C98.941 255.03 102.464 258.001 106.565 258.001H151.434C155.543 258.001 159.054 255.031 159.73 250.968L165.389 217.024C173.157 213.816 180.409 209.632 187.039 204.528L219.261 216.598C223.108 218.056 227.438 216.497 229.497 212.93L251.931 174.072C253.99 170.51 253.171 165.989 249.991 163.37Z" fill="#167EE6"/>
<path d="M251.931 174.071L229.497 212.929C227.438 216.496 223.108 218.055 219.261 216.597L187.039 204.526C180.41 209.631 173.157 213.814 165.39 217.023L159.73 250.966C159.055 255.03 155.543 258 151.435 258H129.354V0H151.435C155.546 0 159.057 2.97254 159.73 7.03352L165.39 40.9772C173.158 44.1855 180.41 48.3695 187.039 53.4735L219.261 41.4035C223.115 39.9507 227.444 41.5042 229.497 45.0714L251.932 83.9286C253.99 87.4902 253.172 92.0108 249.991 94.6301L223.479 116.465C224.062 120.727 224.348 124.873 224.348 129.001C224.348 133.129 224.062 137.273 223.479 141.536L249.991 163.371C253.171 165.989 253.99 170.51 251.931 174.071Z" fill="#2860CC"/>
<path d="M157.38 162.652V255.538C155.849 257.069 153.734 258 151.435 258H106.566C104.586 258 102.746 257.31 101.293 256.138V162.652H157.38Z" fill="#FFAA00"/>
<path d="M157.38 162.652V255.538C155.849 257.069 153.734 258 151.435 258H129.348V162.652H157.38Z" fill="#F28D00"/>
<path d="M157.38 74.1302V112.174L129.337 129L101.293 112.174V74.1302C80.685 84.6295 67.6419 105.57 67.6409 128.998C67.6404 164.133 96.2627 190.679 129.304 190.696C163.338 190.713 191.032 163.03 191.032 129C191.032 105.57 177.989 84.6295 157.38 74.1302Z" fill="#FFD500"/>
<path d="M191.032 129C191.032 105.57 177.988 84.6295 157.38 74.1302V112.174L129.337 129V190.694C163.357 190.693 191.032 163.019 191.032 129Z" fill="#FFAA00"/>
</g>
<defs>
<clipPath id="clip0_18_2">
<rect width="258" height="258" fill="white"/>
</clipPath>
</defs>
</svg>
