<?xml version="1.0" standalone="no"?>
<!DOCTYPE svg PUBLIC "-//W3C//DTD SVG 20010904//EN"
        "https://www.w3.org/TR/2001/REC-SVG-20010904/DTD/svg10.dtd">
<svg xmlns="http://www.w3.org/2000/svg"
     width="486.000000pt" height="486.000000pt" viewBox="0 0 486.000000 486.000000"
     preserveAspectRatio="xMidYMid meet" baseProfile="full">
    <style>
        g {
        fill: #000000;
        }
        @media (prefers-color-scheme: dark) {
            g {
            fill: #ffffff;
            }
        }
    </style>
    <g transform="translate(0.000000,486.000000) scale(0.100000,-0.100000)"
       stroke="none">
        <path d="M3069 3601 c-20 -21 -29 -39 -29 -63 0 -19 173 -509 400 -1133 319
-879 405 -1105 425 -1122 35 -31 95 -31 130 0 20 17 107 247 425 1121 237 651
400 1113 400 1133 0 48 -45 93 -94 93 -76 0 -63 30 -441 -1010 -191 -525 -349
-959 -352 -964 -3 -5 -164 427 -358 959 -381 1050 -366 1015 -441 1015 -26 0
-44 -8 -65 -29z"/>
        <path d="M867 3589 c-9 -5 -24 -23 -32 -38 -33 -66 -805 -2203 -805 -2231 0
-43 47 -90 90 -90 48 0 86 25 102 67 9 21 167 457 353 968 186 512 341 933
345 938 3 4 163 -426 356 -955 268 -740 355 -969 376 -991 50 -51 147 -21 162
51 5 20 -93 299 -393 1123 -219 603 -404 1106 -410 1117 -25 46 -98 67 -144
41z"/>
        <path d="M1889 3571 c-19 -19 -29 -40 -29 -59 0 -27 773 -2170 806 -2233 8
-16 23 -33 33 -39 25 -13 77 -13 102 0 21 12 49 60 49 86 0 12 -668 1862 -790
2187 -15 41 -30 61 -50 72 -46 24 -88 19 -121 -14z"/>
    </g>
</svg>
