<?xml version="1.0" encoding="UTF-8" standalone="no"?>
<!-- Created with Inkscape (http://www.inkscape.org/) -->
<svg version="1.1" id="svg2" width="558.03998" height="97.040001" viewBox="0 0 558.03998 97.040001" sodipodi:docname="Logo Foome DEF (2).eps" xmlns:inkscape="http://www.inkscape.org/namespaces/inkscape" xmlns:sodipodi="http://sodipodi.sourceforge.net/DTD/sodipodi-0.dtd" xmlns="http://www.w3.org/2000/svg" xmlns:svg="http://www.w3.org/2000/svg">
	<defs id="defs6" />
	<namedview id="namedview4" pagecolor="#ffffff" bordercolor="#000000" borderopacity="0.25" inkscape:showpageshadow="2" inkscape:pageopacity="0.0" inkscape:pagecheckerboard="0" inkscape:deskcolor="#d1d1d1" />
	<g id="g8" inkscape:groupmode="layer" inkscape:label="ink_ext_XXXXXX" transform="matrix(1.3333333,0,0,-1.3333333,0,97.04)">
		<g id="g10" transform="scale(0.1)">
			<path d="m 880.289,87.0039 h 79.004 V 443.027 h -84.004 v 75.004 h 84.004 v 25 c 0,162.012 122.007,182.012 182.007,182.012 27.01,0 46.01,-2.996 46.01,-2.996 v -80.008 c 0,0 -13,3 -36.01,3 -32,0 -95,-9 -95,-100.004 v -27.004 h 93.66 c 15.66,0 28.35,-12.691 28.35,-28.347 V 443.027 H 1056.3 V 87.0039 h 64.66 c 15.66,0 28.35,-12.6953 28.35,-28.3476 V 12.0039 H 880.289 v 75" style="fill:#e81e24;fill-opacity:1;fill-rule:nonzero;stroke:none" id="path12" />
			<path d="m 1515.31,84.0039 c 95.01,0 174.02,76.0041 174.02,182.0121 0,105.007 -79.01,180.015 -174.02,180.015 -96,0 -174.01,-75.008 -174.01,-180.015 0,-106.008 78.01,-182.0121 174.01,-182.0121 z m 0,446.0311 c 151.01,0 273.02,-111.008 273.02,-264.019 C 1788.33,112.012 1666.32,0 1515.31,0 c -151,0 -273.01,112.012 -273.01,266.016 0,153.011 122.01,264.019 273.01,264.019" style="fill:#e81e24;fill-opacity:1;fill-rule:nonzero;stroke:none" id="path14" />
			<path d="m 2141.3,84.0039 c 95.01,0 174.02,76.0041 174.02,182.0121 0,105.007 -79.01,180.015 -174.02,180.015 -96,0 -174,-75.008 -174,-180.015 0,-106.008 78,-182.0121 174,-182.0121 z m 0,446.0311 c 151.02,0 273.02,-111.008 273.02,-264.019 C 2414.32,112.012 2292.32,0 2141.3,0 c -151,0 -273.01,112.012 -273.01,266.016 0,153.011 122.01,264.019 273.01,264.019" style="fill:#e81e24;fill-opacity:1;fill-rule:nonzero;stroke:none" id="path16" />
			<path d="m 2498.29,87.0039 h 79 V 421.023 c 0,12.153 -9.85,22.004 -22,22.004 h -62 v 75.004 h 114 c 43.01,0 64.01,-19 64.01,-56 v -26.008 c 0,-15.996 -3,-28.996 -3,-28.996 h 2 c 25,60.004 98,123.008 180.01,123.008 81,0 131,-37.004 148.01,-119.012 h 2 c 28,63.004 98.01,119.012 181,119.012 112.02,0 165.01,-65.008 165.01,-194.015 V 87.0039 H 3398 c 15.65,0 28.34,-12.6953 28.34,-28.3476 V 12.0039 H 3249.33 V 315.02 c 0,71.003 -13,127.007 -89,127.007 -95.01,0 -149.02,-97.004 -149.02,-197.007 V 87.0039 h 50.66 c 15.66,0 28.35,-12.6953 28.35,-28.3476 V 12.0039 H 2914.31 V 315.02 c 0,66.003 -10,127.007 -88,127.007 -96.01,0 -152.02,-102.007 -152.02,-201.011 V 87.0039 h 51.67 c 15.65,0 28.34,-12.6953 28.34,-28.3476 V 12.0039 h -256.01 v 75" style="fill:#e81e24;fill-opacity:1;fill-rule:nonzero;stroke:none" id="path18" />
			<path d="m 3863.31,318.016 c -3,89.011 -57,135.011 -121.01,135.011 -74,0 -134.01,-50 -148.01,-135.011 z M 3744.3,530.035 c 144.01,0 219.02,-106.008 219.02,-237.019 0,-12.996 -3.01,-37 -3.01,-37 h -370.02 c 6.01,-112.004 85.01,-172.0121 175.01,-172.0121 55.03,0 100.29,22.2931 126.48,38.9921 13.82,8.817 32.16,4.469 40.21,-9.808 l 24.32,-43.1802 c 0,0 -76,-70.0078 -197.01,-70.0078 -159.01,0 -268.01,115.008 -268.01,265.02 0,161.003 109,265.015 253.01,265.015" style="fill:#e81e24;fill-opacity:1;fill-rule:nonzero;stroke:none" id="path20" />
			<path d="m 4081.28,117.012 h 75.65 c 15.66,0 28.35,-12.692 28.35,-28.3479 V 12.0039 h -104 V 117.012" style="fill:#2f2f2f;fill-opacity:1;fill-rule:nonzero;stroke:none" id="path22" />
			<path d="M 377.801,12.0039 H 0 V 379.461 C 0,571.863 155.973,727.836 348.375,727.836 H 718.117 V 352.316 C 718.117,164.367 565.75,12.0039 377.801,12.0039" style="fill:#ee252c;fill-opacity:1;fill-rule:evenodd;stroke:none" id="path24" />
			<path d="M 645.176,479.328 H 250.207 c -15.656,0 -28.348,12.692 -28.348,28.348 v 37.883 h 394.969 c 15.656,0 28.348,-12.692 28.348,-28.344 v -37.887" style="fill:#ffffff;fill-opacity:1;fill-rule:evenodd;stroke:none" id="path26" />
			<path d="M 520.691,378.07 H 139.98 c -13.027,0 -23.585,10.559 -23.585,23.582 v 42.653 h 380.71 c 13.028,0 23.586,-10.563 23.586,-23.586 V 378.07" style="fill:#ffffff;fill-opacity:1;fill-rule:evenodd;stroke:none" id="path28" />
			<path d="M 411.344,279.16 H 245.391 c -13.028,0 -23.586,10.559 -23.586,23.582 v 42.653 h 165.953 c 13.023,0 23.586,-10.559 23.586,-23.586 V 279.16" style="fill:#ffffff;fill-opacity:1;fill-rule:evenodd;stroke:none" id="path30" />
			<path d="M 310.961,180.25 H 173.668 c -13.023,0 -23.582,10.559 -23.582,23.586 v 42.648 h 137.293 c 13.023,0 23.582,-10.558 23.582,-23.586 V 180.25" style="fill:#ffffff;fill-opacity:1;fill-rule:evenodd;stroke:none" id="path32" />
		</g>
	</g>
</svg>
