<?xml version="1.0" encoding="utf-8"?>
<!-- Generator: Adobe Illustrator 24.0.2, SVG Export Plug-In . SVG Version: 6.00 Build 0)  -->
<svg version="1.0" id="Layer_1" xmlns="http://www.w3.org/2000/svg" xmlns:xlink="http://www.w3.org/1999/xlink" x="0px" y="0px"
	 viewBox="0 0 300 280" enable-background="new 0 0 300 280" xml:space="preserve">
<g>
	<path fill-rule="evenodd" clip-rule="evenodd" fill="#6BCAD3" d="M87.81,212.35C48.8,178.49,74.03,103.12,134,112.61v6.98
		C83.35,117.23,61.05,177.65,87.81,212.35z M197.2,81.6c6.16,4.92,14.66,8.56,26.38,9.25v6.84C210.62,95.29,202.4,88.85,197.2,81.6z
		 M180.94,45.6c-0.01,2.52,0.32,5.24,0.73,7.71h-23.91v119.04c0,5.49-0.56,10.37-1.69,14.66c-9.74,21.46-37.3,18.66-44.92,3.93
		c11.34,7.1,29.99,5.22,37.64-11.64c1.12-4.28,1.68-9.17,1.68-14.66V45.6H180.94z"/>
	<path fill-rule="evenodd" clip-rule="evenodd" fill="#010101" d="M188.23,53.31v0.15c0.01,2.76,0.82,42.61,42.64,45.1
		c0,37.08,0.02,0,0.02,30.79c-3.14,0.19-27.53-1.58-42.71-15.11l-0.05,59.95c0.38,27.15-14.74,53.77-43.03,59.13
		c-7.93,1.5-15.06,1.67-27.04-0.95c-69.02-20.65-46.08-123.01,23.22-112.05c0,33.05,0.02-0.01,0.02,33.05
		c-28.63-4.21-38.2,19.6-30.6,36.66c6.92,15.52,35.43,18.89,45.37-3.01c1.13-4.29,1.69-9.17,1.69-14.66V53.31H188.23z"/>
	<path fill-rule="evenodd" clip-rule="evenodd" fill="#EE1D53" d="M134,119.59c2.36,0.1,4.79,0.34,7.28,0.73
		c0,33.05,0.02-0.01,0.02,33.05c-28.63-4.21-38.2,19.6-30.6,36.66c0.14,0.31,0.29,0.62,0.45,0.92c-3.4-2.13-6.14-5.06-7.74-8.63
		c-7.6-17.05,1.97-40.87,30.6-36.66C134.01,115.37,134,140.57,134,119.59z M223.58,97.69c2.28,0.42,4.71,0.72,7.29,0.87
		c0,37.08,0.02,0,0.02,30.79c-3.14,0.19-27.53-1.58-42.71-15.11l-0.05,59.95c0.38,27.15-14.74,53.77-43.03,59.13
		c-7.93,1.5-15.06,1.67-27.04-0.95c-13.49-4.03-23.45-11.2-30.26-20.03c6.07,5.27,13.68,9.54,22.98,12.33
		c11.97,2.61,19.11,2.44,27.03,0.94c28.29-5.37,43.4-31.99,43.04-59.12l0.04-59.96c15.18,13.54,39.56,15.31,42.72,15.11
		C223.61,93.04,223.58,122.97,223.58,97.69z M188.23,53.31v0.15c0,1.62,0.29,16.01,8.98,28.14c-10.47-8.38-14.2-20.48-15.53-28.29
		H188.23z"/>
</g>
</svg>