<?xml version="1.0" encoding="utf-8"?>
<!-- Generator: Adobe Illustrator 23.0.3, SVG Export Plug-In . SVG Version: 6.00 Build 0)  -->
<svg version="1.1" id="Layer_1" xmlns="http://www.w3.org/2000/svg" xmlns:xlink="http://www.w3.org/1999/xlink" x="0px" y="0px"
	 viewBox="0 0 1825 1825" style="enable-background:new 0 0 1825 1825;" xml:space="preserve">
<style type="text/css">
	.st0{fill:#EE1D52;}
	.st1{fill:#69C9D0;}
	.st2{fill:none;}
</style>
<g>
	<path class="st0" d="M248.8,1391.7l5.3,15.1C253.5,1405.1,251.5,1399.8,248.8,1391.7z M459.9,1050.4
		c9.4-80.9,41.2-126.2,101.1-172.7c85.8-62.9,192.9-27.3,192.9-27.3V639.2c26.1-0.7,52.1,0.9,77.9,4.8v271.7
		c0,0-107.1-35.6-192.9,27.4c-59.9,46.4-91.8,91.8-101.1,172.7c-0.3,43.9,7.6,101.4,44,151.1c-9-4.8-18.2-10.3-27.5-16.5
		C474.2,1194.2,459.6,1110,459.9,1050.4L459.9,1050.4z M1274.3,248.9c-59-67.5-81.3-135.6-89.4-183.4h74.2
		c0,0-14.8,125.5,93.1,248.9l1.5,1.7C1324.7,296.9,1298,274.4,1274.3,248.9z M1631.9,440.2v266.2c0,0-94.7-3.9-164.8-22.5
		c-97.9-26-160.8-65.9-160.8-65.9s-43.5-28.5-47-30.4v549.8c0,30.6-8,107.1-32.5,170.8c-32,83.4-81.3,138.2-90.4,149.3
		c0,0-60,74-165.9,123.8c-95.4,45-179.2,43.8-204.3,45c0,0-144.9,6-275.2-82.4c-28.2-19.5-54.5-41.5-78.6-65.9l0.7,0.5
		c130.4,88.4,275.2,82.4,275.2,82.4c25.1-1.1,108.9,0,204.3-45c105.8-49.8,165.9-123.8,165.9-123.8c9-11.2,58.6-65.9,90.4-149.4
		c24.4-63.7,32.5-140.2,32.5-170.8V522.1c3.5,2,46.9,30.5,46.9,30.5s62.9,39.9,160.8,65.9C1459.3,637.2,1554,641,1554,641V432.4
		C1586.4,440,1614,442.1,1631.9,440.2L1631.9,440.2z"/>
</g>
<path d="M1554,432.4V641c0,0-94.7-3.9-164.8-22.5c-97.9-26-160.8-65.9-160.8-65.9s-43.4-28.5-46.9-30.5v549.8
	c0,30.6-8,107.1-32.5,170.8c-32,83.4-81.3,138.2-90.4,149.4c0,0-60.1,74-165.9,123.8c-95.4,45-179.2,43.8-204.3,45
	c0,0-144.8,6-275.2-82.4l-0.7-0.5c-13.8-13.9-26.7-28.6-38.8-44c-41.6-52.9-67.1-115.5-73.5-133.4c0-0.1,0-0.2,0-0.2
	c-10.3-31-32-105.6-29-177.7c5.2-127.4,48.2-205.5,59.5-225.1c30.1-53.4,69.2-101.2,115.6-141.2c40.9-34.5,87.4-62,137.3-81.3
	c54-22.7,111.9-34.8,170.5-35.8v211.1c0,0-107.2-35.5-192.9,27.3c-60,46.5-91.8,91.8-101.1,172.7c-0.4,59.6,14.2,143.8,94.3,200.1
	c9.3,6.2,18.5,11.7,27.5,16.5c14,19,31,35.5,50.4,49c78.3,51.7,143.8,55.3,227.7,21.7c55.9-22.4,98-73,117.5-129.1
	c12.3-35,12.1-70.2,12.1-106.7V65.5h195.2c8.1,47.9,30.4,116,89.4,183.4c23.7,25.5,50.3,48,79.4,67.1c8.6,9.3,52.5,55.1,108.9,83.2
	C1491.6,413.8,1522.3,424.9,1554,432.4z"/>
<path class="st1" d="M222.4,1235.8v0.2l4.8,13.7C226.7,1248.1,224.9,1243.2,222.4,1235.8L222.4,1235.8z"/>
<path class="st1" d="M583.6,675c-50,19.3-96.4,46.8-137.3,81.3c-46.4,40.1-85.5,88-115.5,141.5c-11.4,19.5-54.3,97.8-59.5,225.1
	c-3,72.2,18.7,146.7,29,177.7c0,0.1,0,0.2,0,0.2c6.5,17.7,31.9,80.3,73.5,133.4c12.1,15.4,25,30.1,38.8,44
	c-44.1-30.5-83.4-67.4-116.7-109.4c-41.2-52.5-66.7-114.4-73.3-132.7c0-0.1,0-0.3,0-0.4v-0.2c-10.3-31-32.1-105.6-29-177.8
	c5.2-127.4,48.2-205.5,59.5-225.1c30-53.5,69.1-101.4,115.5-141.5c40.9-34.6,87.4-62,137.3-81.3c31.2-12.9,63.7-22.5,96.9-28.5
	c50.1-8.7,101.2-9.5,151.5-2.2v60.2C695.5,640.2,637.6,652.4,583.6,675z"/>
<path class="st1" d="M1184.9,65.5H989.8v1036.4c0,36.4,0,71.6-12.1,106.7c-19.7,56-61.6,106.6-117.5,129
	c-83.9,33.7-149.5,30-227.7-21.7c-19.4-13.4-36.5-29.9-50.6-48.8c66.7,35.6,126.3,34.9,200.2,5.3c55.9-22.4,97.9-73,117.5-129.1
	c12.3-35,12.1-70.2,12.1-106.6V0h269.5C1181.2,0,1178.2,25.8,1184.9,65.5z M1554,374.7v57.7c-31.6-7.5-62.3-18.7-91.4-33.2
	c-56.4-28.1-100.3-74-108.9-83.2c10,6.5,20.3,12.5,31,17.8C1453.2,368,1520.7,378.2,1554,374.7L1554,374.7z"/>
<path class="st2" d="M1195,2052.7c-2.2-7.1-3.3-14.5-3.3-21.9v-0.5C1191.7,2037.9,1192.8,2045.4,1195,2052.7L1195,2052.7z
	 M1356.3,2030.3v0.5c0,7.4-1.1,14.8-3.3,21.9C1355.2,2045.4,1356.2,2037.9,1356.3,2030.3L1356.3,2030.3z"/>
</svg>
